<svg width="130" height="38" viewBox="0 0 130 38" fill="none" xmlns="http://www.w3.org/2000/svg">
<g clip-path="url(#clip0_135_320)">
<path fill-rule="evenodd" clip-rule="evenodd" d="M44.9675 34.6227C43.1281 36.1847 40.4976 37.0983 37.3045 37.1407H37.0705C33.7965 37.1407 31.0883 36.1509 29.1982 34.444C27.3679 32.7911 26.2886 30.4518 26.21 27.6368H31.1508C32.151 27.6368 33.0785 28.2439 33.7384 29.105C34.5304 30.1384 35.7941 31.3789 37.3376 31.3789C38.3628 31.3789 39.3534 31.1336 40.0958 30.6269C40.8465 30.1147 41.3447 29.3317 41.3447 28.293C41.3447 27.1888 40.6694 26.4948 39.7053 26.0284C38.7486 25.5655 37.4446 25.2924 36.0504 25.0454C33.9328 24.672 31.579 24.1914 29.7535 23.0031C28.8456 22.412 28.0739 21.6488 27.528 20.6403C26.9824 19.632 26.6547 18.3642 26.6547 16.7511C26.6547 14.1794 27.684 12.0119 29.4894 10.4817C31.2989 8.94791 33.9016 8.04449 37.052 8.04449C40.2006 8.04449 42.7847 8.97288 44.5803 10.5671C46.3149 12.107 47.3299 14.2818 47.4051 16.8928H42.7205C41.6881 16.8928 40.7383 16.2359 40.0229 15.3576C39.3194 14.4942 38.2473 13.566 36.8737 13.566C35.7268 13.566 34.7854 13.8439 34.1242 14.357C33.4556 14.8758 33.089 15.6244 33.089 16.5108C33.089 17.0398 33.2508 17.4777 33.5442 17.837C33.8326 18.1902 34.238 18.4555 34.7104 18.6678C35.6431 19.0872 36.9155 19.3319 38.2693 19.5923L38.2955 19.5973L38.4255 19.622C40.5608 20.0282 42.9102 20.4748 44.744 21.6214C45.6735 22.2025 46.4633 22.9598 47.022 23.9779C47.5808 24.9958 47.917 26.2901 47.917 27.9591C47.917 30.7414 46.8467 33.027 44.9675 34.6227Z" fill="#051321"/>
<path fill-rule="evenodd" clip-rule="evenodd" d="M51.8046 24.7742V8.83826H55.7721C57.2602 8.83826 58.4661 10.1164 58.4661 11.6932V23.9109C58.4661 25.948 58.975 27.6073 59.9355 28.7607C60.8999 29.9182 62.2954 30.536 64.0059 30.536C65.7221 30.536 67.1074 29.9039 68.06 28.7395C69.0089 27.5797 69.505 25.9212 69.505 23.9109V11.6932C69.505 10.1164 70.7109 8.83826 72.199 8.83826H76.1664V24.7742C76.1664 28.4971 74.9566 31.5837 72.844 33.7398C70.7306 35.8969 67.6936 37.1429 64.0059 37.1429C60.3225 37.1429 57.2749 35.8968 55.1501 33.7394C53.0262 31.5829 51.8046 28.4964 51.8046 24.7742Z" fill="#051321"/>
<path fill-rule="evenodd" clip-rule="evenodd" d="M98.7495 34.6227C96.9102 36.1847 94.28 37.0983 91.0869 37.1407H90.8528C87.5789 37.1407 84.8702 36.1509 82.9805 34.444C81.15 32.7911 80.071 30.4518 79.9922 27.6368H84.9329C85.9331 27.6368 86.8608 28.2439 87.5205 29.105C88.3126 30.1384 89.5762 31.3789 91.1197 31.3789C92.1449 31.3789 93.1353 31.1336 93.8778 30.6269C94.6287 30.1147 95.1268 29.3317 95.1268 28.293C95.1268 27.1888 94.4514 26.4948 93.4875 26.0284C92.5308 25.5655 91.227 25.2924 89.8325 25.0454C87.715 24.672 85.3609 24.1914 83.5359 23.0031C82.6279 22.412 81.8558 21.6488 81.3102 20.6403C80.7646 19.632 80.4368 18.3642 80.4368 16.7511C80.4368 14.1794 81.466 12.0119 83.2714 10.4817C85.0813 8.94791 87.6837 8.04449 90.8342 8.04449C93.9827 8.04449 96.5669 8.97288 98.3625 10.5671C100.097 12.107 101.112 14.2818 101.187 16.8928H96.5027C95.4703 16.8928 94.5205 16.2359 93.8048 15.3576C93.1015 14.4942 92.0293 13.566 90.6559 13.566C89.5087 13.566 88.5678 13.8439 87.9065 14.357C87.238 14.8758 86.871 15.6244 86.871 16.5108C86.871 17.0398 87.0332 17.4777 87.3266 17.837C87.6146 18.1902 88.0202 18.4555 88.4923 18.6678C89.4254 19.0872 90.6974 19.3319 92.0513 19.5923L92.0778 19.5973L92.2076 19.622C94.3427 20.0282 96.6923 20.4748 98.5262 21.6214C99.4558 22.2025 100.245 22.9598 100.804 23.9779C101.363 24.9958 101.699 26.2901 101.699 27.9591C101.699 30.7414 100.629 33.027 98.7495 34.6227Z" fill="#051321"/>
<path fill-rule="evenodd" clip-rule="evenodd" d="M105.586 24.7742V8.83826H109.554C111.042 8.83826 112.248 10.1164 112.248 11.6932V23.9109C112.248 25.948 112.757 27.6073 113.717 28.7607C114.682 29.9182 116.077 30.536 117.787 30.536C119.504 30.536 120.889 29.9039 121.842 28.7395C122.79 27.5797 123.287 25.9212 123.287 23.9109V11.6932C123.287 10.1164 124.493 8.83826 125.981 8.83826H129.948V24.7742C129.948 28.4971 128.738 31.5837 126.626 33.7398C124.512 35.8969 121.475 37.1429 117.787 37.1429C114.104 37.1429 111.056 35.8968 108.932 33.7394C106.808 31.5829 105.586 28.4964 105.586 24.7742Z" fill="#051321"/>
<path fill-rule="evenodd" clip-rule="evenodd" d="M18.6129 29.068C20.2361 29.068 21.5519 30.4624 21.5519 32.1824V36.3351H2.93888C1.31578 36.3351 0 34.9408 0 33.2207V29.068H18.6129Z" fill="#051321"/>
<path fill-rule="evenodd" clip-rule="evenodd" d="M21.5519 4.15268V0H2.93889C1.31578 0 0 1.39441 0 3.11451V7.2672L9.52932e-05 10.3817H0.00651949C0.0869196 8.76383 0.912697 7.46486 1.95935 7.28776V7.2672H18.6129C20.2361 7.2672 21.5519 5.87279 21.5519 4.15268Z" fill="url(#paint0_linear_135_320)"/>
<path fill-rule="evenodd" clip-rule="evenodd" d="M15.1083 6.10352e-05L12.7657 7.26726H2.93898V7.27961C1.35672 7.44639 0.097741 9.21601 0.00551215 11.4194H9.52932e-05V7.26726L0 3.11458C0 1.39448 1.31578 6.10352e-05 2.93889 6.10352e-05H15.1083Z" fill="url(#paint1_linear_135_320)"/>
<path fill-rule="evenodd" clip-rule="evenodd" d="M21.552 18.6862V14.5336H2.93888C1.31578 14.5336 0 15.9279 0 17.6481V21.8008H0.000192454V23.358C0.000192454 22.5565 0.857375 21.8963 1.95945 21.8103V21.8008H18.6131C20.2362 21.8008 21.552 20.4063 21.552 18.6862Z" fill="url(#paint2_linear_135_320)"/>
<path fill-rule="evenodd" clip-rule="evenodd" d="M10.5089 14.5336L8.18532 21.8008H1.95944V21.8103C0.857375 21.8963 0.000192454 22.5565 0.000192454 23.358V21.8008H0V17.6481C0 15.9279 1.31578 14.5336 2.93888 14.5336H10.5089Z" fill="url(#paint3_linear_135_320)"/>
</g>
<defs>
<linearGradient id="paint0_linear_135_320" x1="9.52932e-05" y1="0.777778" x2="3.22932" y2="0.777778" gradientUnits="userSpaceOnUse">
<stop stop-color="#018A47"/>
<stop offset="1" stop-color="#02AE5A"/>
</linearGradient>
<linearGradient id="paint1_linear_135_320" x1="9.52932e-05" y1="0.855125" x2="2.26386" y2="0.855125" gradientUnits="userSpaceOnUse">
<stop stop-color="#007B3F"/>
<stop offset="1" stop-color="#019B48"/>
</linearGradient>
<linearGradient id="paint2_linear_135_320" x1="0.000192454" y1="18.9064" x2="3.60682" y2="18.9064" gradientUnits="userSpaceOnUse">
<stop stop-color="#5CD59A"/>
<stop offset="1" stop-color="#6FEAAE"/>
</linearGradient>
<linearGradient id="paint3_linear_135_320" x1="0.000192454" y1="18.9064" x2="1.75883" y2="18.9064" gradientUnits="userSpaceOnUse">
<stop stop-color="#53C38C"/>
<stop offset="1" stop-color="#51E09B"/>
</linearGradient>
<clipPath id="clip0_135_320">
<rect width="130" height="37.1429" fill="white"/>
</clipPath>
</defs>
</svg>
