<svg width="128" height="49" viewBox="0 0 128 49" fill="none" xmlns="http://www.w3.org/2000/svg">
<g filter="url(#filter0_d_135_315)">
<path d="M18.1723 6.41634C17.9547 6.41634 17.7601 6.55511 17.6901 6.76119L13.5636 18.8522C13.4031 19.3228 12.7318 19.3086 12.5917 18.8311L9.05221 6.78226C8.98827 6.5653 8.78899 6.41634 8.56251 6.41634H4.51085C4.16397 6.41634 3.91844 6.75439 4.02523 7.08356L10.2384 26.2331C10.3064 26.4433 10.5023 26.5861 10.7233 26.5861H14.9151C15.1341 26.5861 15.3286 26.446 15.3987 26.2386L19.6911 13.5062C19.8468 13.0451 20.4977 13.0423 20.6569 13.5021L25.0609 26.2426C25.1323 26.448 25.3254 26.5861 25.5431 26.5861H29.6117C29.8335 26.5861 30.03 26.4426 30.0974 26.2311L36.2317 7.0822C36.3371 6.75303 36.0915 6.41634 35.7459 6.41634H31.9419C31.7147 6.41634 31.5147 6.56666 31.4515 6.785L27.9896 18.8141C27.8515 19.2936 27.1775 19.3099 27.0163 18.8379L22.8953 6.76119C22.8252 6.55511 22.6307 6.41634 22.413 6.41634H18.1723ZM36.668 21.1182C36.668 24.3067 39.2771 27.2062 43.5013 27.2062C45.792 27.2062 47.4531 26.3947 48.5704 25.382C48.9507 25.0372 49.7424 25.2915 49.7963 25.8017C49.8131 25.9696 49.8323 26.1104 49.8491 26.2254C49.8824 26.4424 50.0696 26.5852 50.2885 26.5852H53.7717C54.1179 26.5852 54.1491 26.2778 54.1456 25.9703C54.1389 25.3854 54.1456 24.506 54.1456 23.3545V13.3318C54.1456 9.3142 51.7848 5.79378 45.5725 5.79378C40.8176 5.79378 37.7309 8.63679 37.1461 11.9294C37.1005 12.1844 37.2725 12.4225 37.5248 12.4796L40.9107 13.2462C41.2093 13.3135 41.4971 13.1033 41.5643 12.8047C41.9581 11.0506 43.3285 9.72842 45.6139 9.72842C48.2645 9.72842 49.424 11.0955 49.424 12.7932C49.424 13.4971 49.0928 14.0773 47.9333 14.2432L42.756 15.0295C39.3184 15.5267 36.668 17.5147 36.668 21.1182ZM44.4128 23.4375C42.5077 23.4375 41.4725 22.1948 41.4725 20.8284C41.4725 19.1716 42.6736 18.3432 44.1645 18.0942L48.8384 17.395C49.1472 17.3495 49.424 17.5882 49.424 17.8997V18.2187C49.424 22.1534 47.1048 23.4375 44.4128 23.4375ZM62.1893 26.5849C62.4709 26.5849 62.6992 26.3564 62.6992 26.0748V0.51011C62.6992 0.22853 62.4709 0 62.1893 0H58.4048C58.1232 0 57.8947 0.22853 57.8947 0.51011V26.0748C57.8947 26.3564 58.1232 26.5849 58.4048 26.5849H62.1893ZM71.1107 26.5849C71.3923 26.5849 71.6208 26.3564 71.6208 26.0748V0.51011C71.6208 0.22853 71.3923 0 71.1107 0H67.3261C67.0445 0 66.816 0.22853 66.816 0.51011V26.0748C66.816 26.3564 67.0445 26.5849 67.3261 26.5849H71.1107ZM79.2291 15.4879C78.9419 15.5649 78.6477 15.3811 78.628 15.085C78.4941 13.069 79.6245 10.7516 82.2997 10.0347C85.26 9.24154 87.2507 10.5791 88.0789 12.5716C88.1904 12.8382 88.0267 13.1307 87.7472 13.2055L79.2291 15.4879ZM90.6413 18.0329C90.3627 18.0202 90.1283 18.2337 90.0904 18.51C89.8344 20.3953 88.7448 22.0287 86.1701 22.7186C83.4581 23.4452 80.7392 22.1592 79.6683 19.5634C79.5576 19.2952 79.7211 19.0007 80.0008 18.9257L93.4248 15.3288C93.6115 15.2788 93.7315 15.1255 93.7048 14.9334C93.6651 14.6512 93.5813 14.2124 93.4533 13.7348C91.8027 7.57436 87.2205 4.55684 81.2197 6.16474C76.2989 7.48324 72.8317 12.7858 74.4824 18.9468C76.2512 25.5474 81.9611 28.1339 87.2419 26.719C91.708 25.5222 94.0443 22.2022 94.3603 18.7045C94.3856 18.4252 94.1669 18.1902 93.8875 18.1771L90.6413 18.0329ZM102.451 0.75544C102.451 0.473179 102.224 0.245329 101.942 0.245329H98.6136C98.3312 0.245329 98.1035 0.473179 98.1035 0.75544V3.26858C98.1035 5.04922 97.1504 6.41631 94.9971 6.41631H94.4715C94.1899 6.41631 93.9613 6.64415 93.9613 6.92642V10.1721C93.9613 10.4537 94.1899 10.6822 94.4715 10.6822H97.1792C97.4605 10.6822 97.6891 10.91 97.6891 11.1923V20.8293C97.6891 24.598 100.009 26.8344 103.736 26.8344C105.061 26.8344 105.906 26.6419 106.361 26.495C106.556 26.4331 106.676 26.2467 106.676 26.0427V23.0248C106.676 22.7031 106.381 22.4569 106.061 22.4964C105.747 22.5344 105.367 22.5684 105.02 22.5684C103.238 22.5684 102.451 21.823 102.451 20.0424V11.1923C102.451 10.91 102.68 10.6822 102.962 10.6822H106.125C106.407 10.6822 106.635 10.4537 106.635 10.1721V6.92642C106.635 6.64415 106.407 6.41631 106.125 6.41631H102.962C102.68 6.41631 102.451 6.18778 102.451 5.9062V0.75544ZM108.472 21.0019C108.231 21.0692 108.072 21.3011 108.121 21.546C108.586 23.8422 110.892 27.2062 116.379 27.2062C121.515 27.2062 124 23.8102 124 20.7455C124 17.763 122.012 15.4437 118.202 14.6153L115.137 13.9943C113.894 13.746 113.107 12.9591 113.107 11.8824C113.107 10.6398 114.309 9.56314 116.006 9.56314C118.289 9.56314 119.261 10.9024 119.606 12.0164C119.697 12.3123 119.999 12.5102 120.297 12.4259L123.355 11.5519C123.604 11.4805 123.763 11.2336 123.699 10.9819C123.185 8.94148 121.241 5.79378 116.006 5.79378C111.823 5.79378 108.593 8.7762 108.593 12.296C108.593 15.071 110.457 17.3903 114.018 18.1772L117.001 18.8404C118.616 19.1716 119.361 20 119.361 21.0767C119.361 22.3193 118.326 23.396 116.338 23.396C114.058 23.396 112.725 22.1221 112.338 20.5604C112.262 20.2517 111.955 20.0367 111.649 20.1217L108.472 21.0019Z" fill="#00C9B6"/>
<path d="M88.2189 39.4989C88.2189 40.1531 88.7419 40.6763 89.3955 40.6763C90.0499 40.6763 90.5872 40.1531 90.5872 39.4989C90.5872 38.8453 90.0499 38.308 89.3955 38.308C88.7419 38.308 88.2189 38.8453 88.2189 39.4989ZM91.4272 38.6701C91.4272 39.7891 92.3427 40.8059 93.8245 40.8059C94.5659 40.8059 95.1195 40.5637 95.5085 40.2467C95.676 40.1107 96.0221 40.3325 96.0656 40.544C96.0848 40.6344 96.1392 40.5883 96.2309 40.5883H97.2307C97.4456 40.5883 97.6109 40.3909 97.5912 40.1773C97.5736 39.9888 97.5587 39.744 97.5587 39.4544V35.9387C97.5587 34.5293 96.7301 33.2941 94.5509 33.2941C92.9512 33.2941 91.8896 34.2117 91.6243 35.3061C91.5835 35.4741 91.6997 35.6333 91.8677 35.6715L92.7384 35.8685C92.9371 35.9136 93.1275 35.7712 93.1947 35.5789C93.3797 35.0525 93.8416 34.6741 94.5653 34.6741C95.4957 34.6741 95.9024 35.1539 95.9024 35.7496C95.9024 35.9965 95.7861 36.1997 95.3795 36.2584L93.5627 36.5344C92.3568 36.7085 91.4272 37.4056 91.4272 38.6701ZM94.1443 39.4835C93.4757 39.4835 93.1125 39.0477 93.1125 38.568C93.1125 37.9872 93.5341 37.6968 94.0573 37.6091L95.5861 37.3805C95.7528 37.3555 95.9024 37.4845 95.9024 37.6533C95.9024 39.0333 95.0883 39.4835 94.1443 39.4835ZM102.015 31.5088C102.075 31.5088 102.13 31.5107 102.181 31.5136C102.406 31.5251 102.626 31.3571 102.626 31.1307V30.3531C102.626 30.2245 102.551 30.1083 102.426 30.0771C102.258 30.0349 102.014 29.9981 101.739 29.9981C100.286 29.9981 99.2691 30.9571 99.2691 32.5405V33.1739C99.2691 33.3621 99.1168 33.5139 98.9291 33.5139H98.3739C98.1861 33.5139 98.0339 33.6661 98.0339 33.8539V34.6416C98.0339 34.8293 98.1861 34.9816 98.3739 34.9816H98.9291C99.1168 34.9816 99.2691 35.1339 99.2691 35.3216V40.2499C99.2691 40.4376 99.4213 40.5901 99.6091 40.5901H100.629C100.817 40.5901 100.969 40.4376 100.969 40.2499V35.3216C100.969 35.1339 101.121 34.9816 101.309 34.9816H102.27C102.459 34.9816 102.611 34.8293 102.611 34.6416V33.8539C102.611 33.6661 102.459 33.5139 102.27 33.5139H101.309C101.121 33.5139 100.969 33.3621 100.969 33.1739V32.584C100.969 31.7128 101.565 31.5088 102.015 31.5088ZM107.361 33.7485C107.361 33.5867 107.246 33.4451 107.084 33.4328C107.03 33.4288 106.971 33.4261 106.91 33.4261C106.336 33.4261 105.818 33.5973 105.427 33.9096C105.262 34.0416 104.861 33.9197 104.861 33.7083C104.861 33.6008 104.774 33.5131 104.666 33.5131H103.56C103.371 33.5131 103.22 33.6653 103.22 33.8531V40.2493C103.22 40.4371 103.371 40.5893 103.56 40.5893H104.565C104.753 40.5893 104.905 40.4371 104.905 40.2493V37.2184C104.905 35.8963 105.5 35.1408 106.808 35.1408C106.86 35.1408 106.912 35.1421 106.966 35.1448C107.174 35.1544 107.361 34.9965 107.361 34.7877V33.7485ZM109.382 40.5896C109.57 40.5896 109.723 40.4373 109.723 40.2496V33.8533C109.723 33.6656 109.57 33.5133 109.382 33.5133H108.391C108.204 33.5133 108.051 33.6656 108.051 33.8533V40.2496C108.051 40.4373 108.204 40.5896 108.391 40.5896H109.382ZM107.79 31.0293C107.79 31.6395 108.284 32.1189 108.88 32.1189C109.49 32.1189 109.984 31.6395 109.984 31.0293C109.984 30.4187 109.49 29.9248 108.88 29.9248C108.284 29.9248 107.79 30.4187 107.79 31.0293ZM114.25 34.8491C115.124 34.8491 115.604 35.3096 115.839 35.8168C115.923 35.9997 116.128 36.1107 116.317 36.0421L117.186 35.7245C117.35 35.6645 117.444 35.4891 117.383 35.3251C116.998 34.2893 115.974 33.2941 114.235 33.2941C112.201 33.2941 110.618 34.8635 110.618 37.0424C110.618 39.1931 112.201 40.8059 114.279 40.8059C115.97 40.8059 116.999 39.8093 117.424 38.7987C117.494 38.632 117.4 38.4477 117.231 38.3859L116.391 38.0811C116.206 38.0144 116.006 38.1179 115.916 38.292C115.67 38.7667 115.168 39.2659 114.279 39.2659C113.218 39.2659 112.303 38.4667 112.303 37.0424C112.303 35.6189 113.218 34.8491 114.25 34.8491ZM117.825 38.6701C117.825 39.7891 118.741 40.8059 120.223 40.8059C120.964 40.8059 121.518 40.5637 121.907 40.2467C122.074 40.1107 122.42 40.3325 122.464 40.544C122.482 40.6344 122.537 40.5883 122.629 40.5883H123.629C123.844 40.5883 124.009 40.3909 123.989 40.1773C123.971 39.9888 123.957 39.744 123.957 39.4544V35.9387C123.957 34.5293 123.128 33.2941 120.949 33.2941C119.349 33.2941 118.287 34.2117 118.022 35.3061C117.982 35.4741 118.097 35.6333 118.266 35.6715L119.136 35.8685C119.335 35.9136 119.526 35.7712 119.593 35.5789C119.777 35.0525 120.24 34.6741 120.963 34.6741C121.893 34.6741 122.3 35.1539 122.3 35.7496C122.3 35.9965 122.184 36.1997 121.777 36.2584L119.961 36.5344C118.755 36.7085 117.825 37.4056 117.825 38.6701ZM120.542 39.4835C119.874 39.4835 119.51 39.0477 119.51 38.568C119.51 37.9872 119.931 37.6968 120.455 37.6091L121.984 37.3805C122.15 37.3555 122.3 37.4845 122.3 37.6533C122.3 39.0333 121.486 39.4835 120.542 39.4835Z" fill="#5C2799"/>
</g>
<defs>
<filter id="filter0_d_135_315" x="0" y="0" width="128" height="48.8058" filterUnits="userSpaceOnUse" color-interpolation-filters="sRGB">
<feFlood flood-opacity="0" result="BackgroundImageFix"/>
<feColorMatrix in="SourceAlpha" type="matrix" values="0 0 0 0 0 0 0 0 0 0 0 0 0 0 0 0 0 0 127 0" result="hardAlpha"/>
<feOffset dy="4"/>
<feGaussianBlur stdDeviation="2"/>
<feColorMatrix type="matrix" values="0 0 0 0 0 0 0 0 0 0 0 0 0 0 0 0 0 0 0.25 0"/>
<feBlend mode="normal" in2="BackgroundImageFix" result="effect1_dropShadow_135_315"/>
<feBlend mode="normal" in="SourceGraphic" in2="effect1_dropShadow_135_315" result="shape"/>
</filter>
</defs>
</svg>
